<svg width="128" height="128" viewBox="0 0 128 128" fill="none" xmlns="http://www.w3.org/2000/svg">
<rect width="128" height="128" fill="#DA7756"/>
<path d="M29.28 92V90.24L38.08 89.12H44.24L53.04 90.24V92H29.28ZM35.2 92C35.3067 89.92 35.3867 87.4667 35.44 84.64C35.4933 81.8133 35.52 78.88 35.52 75.84C35.5733 72.8 35.6 69.92 35.6 67.2V63.68C35.6 60.96 35.5733 58.1333 35.52 55.2C35.52 52.2667 35.4933 49.44 35.44 46.72C35.3867 43.9467 35.3067 41.52 35.2 39.44H47.12C47.0133 41.52 46.9333 43.9467 46.88 46.72C46.8267 49.44 46.8 52.2667 46.8 55.2C46.8 58.1333 46.8 60.96 46.8 63.68V67.2C46.8 69.92 46.8 72.8 46.8 75.84C46.8 78.88 46.8267 81.8133 46.88 84.64C46.9333 87.4667 47.0133 89.92 47.12 92H35.2ZM19.6 54.88L20.56 39.44H61.84L62.8 54.88H61.04L54.88 40.4L57.84 41.6H24.56L27.44 40.4L21.28 54.88H19.6ZM66.6463 92V90.24L74.9662 89.12H80.9663L90.0063 90.24V92H66.6463ZM71.8463 92C71.9529 89.92 72.0329 87.4667 72.0863 84.64C72.1929 81.8133 72.2463 78.88 72.2463 75.84C72.2463 72.8 72.2463 69.92 72.2463 67.2V63.68C72.2463 60.96 72.2463 58.1333 72.2463 55.2C72.2463 52.2667 72.2196 49.44 72.1663 46.72C72.1129 43.9467 72.0329 41.52 71.9263 39.44H83.8463C83.7396 41.52 83.6596 43.9467 83.6063 46.72C83.5529 49.44 83.4996 52.2667 83.4463 55.2C83.4463 58.1333 83.4463 60.96 83.4463 63.68V67.2C83.4463 69.92 83.4463 72.8 83.4463 75.84C83.4996 78.88 83.5529 81.8133 83.6063 84.64C83.6596 87.4667 83.7396 89.92 83.8463 92H71.8463ZM77.1263 69.92V67.68H85.6063C87.8463 67.68 89.6863 67.0933 91.1263 65.92C92.5663 64.6933 93.6329 63.0667 94.3263 61.04C95.0196 58.96 95.3663 56.6133 95.3663 54C95.3663 50.0533 94.5129 47.0133 92.8063 44.88C91.0996 42.6933 88.6196 41.6 85.3663 41.6H77.1263V39.44H85.6863C90.7529 39.44 94.8063 40 97.8463 41.12C100.94 42.24 103.18 43.8933 104.566 46.08C105.953 48.2133 106.646 50.8267 106.646 53.92C106.646 56.8 105.98 59.4667 104.646 61.92C103.366 64.32 101.153 66.2667 98.0063 67.76C94.9129 69.2 90.6729 69.92 85.2863 69.92H77.1263ZM66.6463 41.12V39.44H80.6463V42.32H74.9662L66.6463 41.12Z" fill="#161517"/>
</svg>
