<?xml version="1.0" standalone="no"?>
<!DOCTYPE svg PUBLIC "-//W3C//DTD SVG 20010904//EN"
 "http://www.w3.org/TR/2001/REC-SVG-20010904/DTD/svg10.dtd">
<svg version="1.0" xmlns="http://www.w3.org/2000/svg"
 width="2048.000000pt" height="2048.000000pt" viewBox="0 0 2048.000000 2048.000000"
 preserveAspectRatio="xMidYMid meet">
<metadata>
Created by potrace 1.14, written by Peter Selinger 2001-2017
</metadata>
<g transform="translate(0.000000,2048.000000) scale(0.100000,-0.100000)"
fill="#000000" stroke="none">
<path d="M0 10240 l0 -10240 10240 0 10240 0 0 10240 0 10240 -10240 0 -10240
0 0 -10240z m14560 5941 c0 -11 -95 -143 -184 -256 -39 -49 -105 -135 -146
-190 -147 -198 -500 -650 -707 -906 -65 -80 -201 -249 -302 -375 -351 -438
-435 -542 -851 -1041 -179 -214 -410 -493 -514 -619 -105 -126 -240 -287 -301
-359 -61 -71 -124 -147 -139 -167 l-28 -38 153 0 c85 0 327 5 539 10 212 5
898 12 1525 15 627 4 1228 10 1335 15 107 4 197 6 199 4 2 -2 -83 -93 -190
-201 -197 -200 -355 -377 -598 -668 -74 -88 -164 -194 -201 -235 -100 -113
-371 -437 -429 -513 l-52 -67 756 0 756 0 -22 -32 c-31 -45 -151 -163 -289
-284 -109 -96 -398 -322 -779 -609 -95 -71 -216 -164 -269 -205 -54 -40 -218
-166 -367 -279 -148 -113 -353 -271 -455 -351 -102 -80 -234 -184 -295 -230
-60 -46 -320 -246 -577 -444 -258 -199 -525 -405 -595 -459 -115 -88 -192
-147 -317 -244 -95 -73 -343 -262 -621 -473 -164 -124 -369 -279 -456 -345
-87 -66 -328 -248 -536 -404 -613 -461 -980 -737 -1285 -969 -157 -119 -343
-257 -413 -307 -69 -49 -142 -101 -160 -115 -19 -14 -134 -98 -257 -188 -123
-89 -277 -202 -343 -252 -383 -285 -1075 -758 -1675 -1143 -120 -77 -320 -191
-326 -185 -7 7 218 325 440 621 390 521 758 1046 1181 1684 104 158 352 525
611 906 83 122 339 501 567 842 420 626 530 790 860 1280 100 149 264 396 366
550 347 528 499 752 522 766 6 4 7 8 3 11 -5 2 -245 1 -534 -3 -289 -4 -934
-12 -1435 -18 -500 -6 -1215 -16 -1588 -22 -374 -6 -681 -8 -684 -6 -5 6 67
101 189 247 87 105 120 147 285 358 99 128 95 123 292 373 80 101 203 261 275
354 129 169 466 590 670 840 126 153 385 476 447 556 98 126 543 677 699 864
91 110 195 236 230 280 35 44 94 114 131 155 36 41 92 109 123 150 31 41 112
142 179 224 67 82 165 201 217 265 52 64 203 244 335 400 237 280 419 499 585
702 47 57 108 131 135 164 28 33 75 92 105 130 53 69 179 220 269 322 l46 53
230 0 c127 0 518 6 870 15 839 19 1713 35 2000 36 127 1 275 5 330 9 146 10
465 11 465 1z"/>
</g>
</svg>
